<?xml version="1.0" encoding="UTF-8"?>
<svg version="1.1" xmlns="http://www.w3.org/2000/svg" width="1000" height="1000">
<path d="M0 0 C3.40062856 4.01099778 5.48010808 7.68827096 5.40820312 13.06616211 C4.6894526 19.73062316 3.4370273 26.20586984 2 32.75 C0.68586355 38.79424778 -0.58415046 44.82210009 -1.5703125 50.9296875 C-2.50602624 56.71350037 -3.71549446 62.40995964 -5 68.125 C-6.68676861 75.7640274 -8.27312992 83.39810164 -9.6796875 91.09375 C-10.82117661 97.32520419 -12.02061186 103.54569957 -13.2192688 109.76635742 C-13.48684144 111.15697039 -13.7535242 112.54775491 -14.01925659 113.9387207 C-15.36315863 120.97244076 -16.7807954 127.93993455 -18.5625 134.875 C-18.88031156 136.62044128 -19.17379709 138.37056841 -19.4375 140.125 C-20.4658266 146.53787141 -21.74266456 152.8896676 -23.03295898 159.25366211 C-24.07220881 164.39049814 -25.06154373 169.53132266 -26 174.6875 C-27.40599929 182.28604261 -29.05958865 189.8223543 -30.72192383 197.3684082 C-32.23972508 204.29355587 -33.61296746 211.22951459 -34.88671875 218.203125 C-35.90739593 223.749001 -37.02829589 229.27397045 -38.14453125 234.80126953 C-38.93451087 238.72071279 -39.71660421 242.6417365 -40.5 246.5625 C-41.53065207 251.72070115 -42.56262401 256.87861688 -43.6015625 262.03515625 C-45.1359554 269.6611983 -46.65149519 277.28756582 -48.0625 284.9375 C-49.13860684 290.75081629 -50.32362587 296.53186328 -51.5625 302.3125 C-52.82568385 308.2128749 -53.98986994 314.11363748 -55 320.0625 C-57.30367798 333.58043064 -60.27817663 346.97680028 -63.1875 360.375 C-64.34273224 365.73166346 -65.37408927 371.10528629 -66.36767578 376.49414062 C-67.52219196 382.73299709 -68.76530118 388.95283185 -70.02905273 395.17041016 C-71.1894225 400.91030039 -72.27807356 406.66254219 -73.35241699 412.41902161 C-74.74427229 419.8678751 -76.17304158 427.30942642 -77.61474609 434.7487793 C-77.91425066 436.2964373 -78.21274671 437.84429079 -78.51025391 439.39233398 C-79.97547694 447.01549708 -81.46440774 454.63369043 -83.1171875 462.21875 C-83.33358887 463.21455078 -83.54999023 464.21035156 -83.77294922 465.23632812 C-86.27955827 473.61339386 -94.22488482 480.46485697 -101.390625 485.04296875 C-109.41001723 488.75629602 -120.18227966 488.01237375 -128.375 485.3125 C-136.31948686 481.97368436 -142.52553924 476.91196076 -148.5625 470.875 C-152.79712042 467.7298693 -157.17448504 464.80034331 -161.5625 461.875 C-161.5625 461.215 -161.5625 460.555 -161.5625 459.875 C-162.23796875 459.66359375 -162.9134375 459.4521875 -163.609375 459.234375 C-167.53210683 457.42867304 -170.51111158 454.87726887 -173.8125 452.125 C-178.65557132 448.15665027 -183.50411724 444.46705444 -188.7890625 441.09765625 C-191.34883797 439.33287712 -193.36758102 437.06991898 -195.5625 434.875 C-197.92955572 433.25543556 -200.33013277 431.7152401 -202.76953125 430.20703125 C-203.36121094 429.76746094 -203.95289063 429.32789063 -204.5625 428.875 C-204.5625 428.215 -204.5625 427.555 -204.5625 426.875 C-205.8825 426.545 -207.2025 426.215 -208.5625 425.875 C-208.5625 425.215 -208.5625 424.555 -208.5625 423.875 C-209.5834375 423.55015625 -209.5834375 423.55015625 -210.625 423.21875 C-214.44660342 421.47056971 -217.34273925 419.04514713 -220.5625 416.375 C-221.89373659 415.2906903 -223.22578319 414.20737441 -224.55859375 413.125 C-225.55995361 412.30902344 -225.55995361 412.30902344 -226.58154297 411.4765625 C-229.56297413 409.06613751 -232.58689909 406.71337379 -235.625 404.375 C-236.62660156 403.6015625 -237.62820313 402.828125 -238.66015625 402.03125 C-240.72987478 400.49358563 -242.7645912 399.09492721 -244.93359375 397.71875 C-245.80113281 397.1103125 -246.66867187 396.501875 -247.5625 395.875 C-247.5625 395.215 -247.5625 394.555 -247.5625 393.875 C-248.07296875 393.648125 -248.5834375 393.42125 -249.109375 393.1875 C-252.54018678 391.35190643 -255.64520021 389.12816042 -258.8125 386.875 C-259.4621875 386.42382812 -260.111875 385.97265625 -260.78125 385.5078125 C-262.41325709 384.34895032 -263.9929825 383.11718497 -265.5625 381.875 C-265.5625 381.215 -265.5625 380.555 -265.5625 379.875 C-266.5525 379.875 -267.5425 379.875 -268.5625 379.875 C-268.5625 379.215 -268.5625 378.555 -268.5625 377.875 C-269.40167969 377.48634766 -269.40167969 377.48634766 -270.2578125 377.08984375 C-278.17998976 372.91391641 -285.13725275 366.67355613 -292.12695312 361.10400391 C-297.04304881 357.21412291 -302.11415042 353.57463024 -307.29614258 350.04736328 C-308.75237949 349.03740943 -310.16282199 347.96198399 -311.5625 346.875 C-311.5625 346.215 -311.5625 345.555 -311.5625 344.875 C-312.8825 344.545 -314.2025 344.215 -315.5625 343.875 C-315.5625 343.215 -315.5625 342.555 -315.5625 341.875 C-316.2328125 341.66488281 -316.903125 341.45476562 -317.59375 341.23828125 C-321.58315678 339.40630366 -324.68028618 336.83189686 -328.0625 334.0625 C-328.71347656 333.54107422 -329.36445313 333.01964844 -330.03515625 332.48242188 C-333.76722212 329.46284131 -337.23580409 326.33604324 -340.5625 322.875 C-338.38615121 317.67594457 -336.03674608 315.11168866 -331.5625 311.875 C-330.9025 311.875 -330.2425 311.875 -329.5625 311.875 C-329.2325 310.885 -328.9025 309.895 -328.5625 308.875 C-327.9025 308.875 -327.2425 308.875 -326.5625 308.875 C-326.2325 307.885 -325.9025 306.895 -325.5625 305.875 C-321.10535714 301.875 -321.10535714 301.875 -318.5625 301.875 C-318.29751709 301.27502197 -318.03253418 300.67504395 -317.75952148 300.05688477 C-316.51776995 297.79346778 -315.38171946 296.60272709 -313.41015625 294.96484375 C-312.79849609 294.44986328 -312.18683594 293.93488281 -311.55664062 293.40429688 C-310.91919922 292.87900391 -310.28175781 292.35371094 -309.625 291.8125 C-308.3650117 290.76015982 -307.10586808 289.70680729 -305.84765625 288.65234375 C-305.28957275 288.19077881 -304.73148926 287.72921387 -304.15649414 287.25366211 C-302.51349264 285.87942173 -302.51349264 285.87942173 -300.98217773 284.20141602 C-299.5625 282.875 -299.5625 282.875 -297.5625 282.875 C-297.2325 281.885 -296.9025 280.895 -296.5625 279.875 C-294.78515625 278.05078125 -294.78515625 278.05078125 -292.625 276.1875 C-291.55958984 275.25357422 -291.55958984 275.25357422 -290.47265625 274.30078125 C-288.5625 272.875 -288.5625 272.875 -286.5625 272.875 C-286.2325 271.885 -285.9025 270.895 -285.5625 269.875 C-284.1015625 268.3671875 -284.1015625 268.3671875 -282.1875 266.75 C-281.47207031 266.1415625 -280.75664062 265.533125 -280.01953125 264.90625 C-276.42821563 261.93727683 -272.81126717 259.00063967 -269.17578125 256.0859375 C-266.479007 253.87570055 -266.479007 253.87570055 -263.91796875 251.1640625 C-261.5625 248.875 -261.5625 248.875 -258.5625 247.875 C-258.2325 246.885 -257.9025 245.895 -257.5625 244.875 C-255.78515625 243.05078125 -255.78515625 243.05078125 -253.625 241.1875 C-252.55958984 240.25357422 -252.55958984 240.25357422 -251.47265625 239.30078125 C-249.5625 237.875 -249.5625 237.875 -247.5625 237.875 C-247.33949219 237.30523437 -247.11648438 236.73546875 -246.88671875 236.1484375 C-245.16832235 233.19827023 -243.05509955 231.60711275 -240.375 229.5 C-239.38886719 228.71367187 -238.40273438 227.92734375 -237.38671875 227.1171875 C-236.45472656 226.37726563 -235.52273438 225.63734375 -234.5625 224.875 C-231.18166226 222.0774979 -227.94398243 219.26535412 -224.875 216.125 C-222.76593012 214.07293201 -221.13464414 213.16107207 -218.5625 211.875 C-218.2325 210.885 -217.9025 209.895 -217.5625 208.875 C-216.9025 208.875 -216.2425 208.875 -215.5625 208.875 C-215.2325 207.885 -214.9025 206.895 -214.5625 205.875 C-213.05346123 204.52126036 -211.47837302 203.24056599 -209.875 202 C-205.18468728 198.26240705 -200.74691712 194.35452518 -196.375 190.25 C-195.18880595 189.13931878 -194.00260814 188.02864159 -192.81640625 186.91796875 C-191.98133545 186.13558838 -191.98133545 186.13558838 -191.12939453 185.33740234 C-189.04314502 183.39027948 -186.9392124 181.46534794 -184.8125 179.5625 C-183.92304687 178.76392578 -183.92304687 178.76392578 -183.015625 177.94921875 C-181.5625 176.875 -181.5625 176.875 -179.5625 176.875 C-178.9025 175.555 -178.2425 174.235 -177.5625 172.875 C-176.9025 172.875 -176.2425 172.875 -175.5625 172.875 C-175.5625 172.215 -175.5625 171.555 -175.5625 170.875 C-173.9248728 169.42097658 -172.22515804 168.03651322 -170.5 166.6875 C-166.50642624 163.49570511 -162.81180868 160.24762635 -159.2578125 156.58203125 C-156.20331464 153.50641935 -153.02183324 150.49136928 -149.5625 147.875 C-148.9025 147.875 -148.2425 147.875 -147.5625 147.875 C-147.2325 146.885 -146.9025 145.895 -146.5625 144.875 C-144.78515625 143.05078125 -144.78515625 143.05078125 -142.625 141.1875 C-141.55958984 140.25357422 -141.55958984 140.25357422 -140.47265625 139.30078125 C-138.5625 137.875 -138.5625 137.875 -136.5625 137.875 C-136.5625 137.215 -136.5625 136.555 -136.5625 135.875 C-134.8839487 134.37870821 -133.14291102 132.95207339 -131.375 131.5625 C-128.3458166 129.17402741 -125.52722235 126.8390178 -122.82421875 124.08203125 C-120.5625 121.875 -120.5625 121.875 -118.5625 121.875 C-118.5625 121.215 -118.5625 120.555 -118.5625 119.875 C-117.13235212 118.64440764 -115.69575519 117.4200342 -114.21875 116.24609375 C-112.31931212 114.72262924 -112.31931212 114.72262924 -109.875 112.125 C-107.5625 109.875 -107.5625 109.875 -104.5625 108.875 C-104.2325 107.885 -103.9025 106.895 -103.5625 105.875 C-101.90864767 104.52580468 -100.240798 103.19366272 -98.5625 101.875 C-96.30081953 99.45734157 -95.60226474 98.45821624 -95.375 95.125 C-95.436875 94.3825 -95.49875 93.64 -95.5625 92.875 C-99.86323773 91.41582113 -102.00020737 92.62837243 -105.94921875 94.515625 C-114.19628808 98.80558034 -121.9573629 103.74465746 -129.65625 108.94140625 C-141.58068182 116.875 -141.58068182 116.875 -144.5625 116.875 C-144.5625 117.535 -144.5625 118.195 -144.5625 118.875 C-145.10777344 119.16632813 -145.65304687 119.45765625 -146.21484375 119.7578125 C-151.02904639 122.37476368 -155.61824477 125.1820528 -160.15625 128.25 C-162.90308807 130.10500753 -165.66176175 131.93846557 -168.4375 133.75 C-169.79488281 134.64332031 -169.79488281 134.64332031 -171.1796875 135.5546875 C-173.5625 136.875 -173.5625 136.875 -176.5625 136.875 C-176.5625 137.535 -176.5625 138.195 -176.5625 138.875 C-178.72155538 140.426166 -180.86980408 141.85164144 -183.125 143.25 C-184.03862305 143.83007812 -184.03862305 143.83007812 -184.97070312 144.421875 C-187.97723776 146.31805981 -191.01057865 148.14627601 -194.10546875 149.89453125 C-197.58199017 151.88616556 -200.95583733 154.00320991 -204.3125 156.1875 C-205.54283424 156.98328091 -206.77330452 157.77885154 -208.00390625 158.57421875 C-208.60605957 158.96399902 -209.20821289 159.3537793 -209.82861328 159.75537109 C-214.05766918 162.48621457 -218.3131037 165.17597429 -222.5625 167.875 C-224.39594102 169.04149743 -226.22927344 170.20816556 -228.0625 171.375 C-228.96226562 171.94734375 -229.86203125 172.5196875 -230.7890625 173.109375 C-232.70137204 174.32678896 -234.61277663 175.54562518 -236.5234375 176.765625 C-237.48507812 177.37921875 -238.44671875 177.9928125 -239.4375 178.625 C-240.30117188 179.17671875 -241.16484375 179.7284375 -242.0546875 180.296875 C-243.29605469 181.07804687 -243.29605469 181.07804687 -244.5625 181.875 C-245.45195312 182.43703125 -246.34140625 182.9990625 -247.2578125 183.578125 C-249.5625 184.875 -249.5625 184.875 -251.5625 184.875 C-251.5625 185.535 -251.5625 186.195 -251.5625 186.875 C-253.01787568 187.71348804 -254.47690373 188.54563934 -255.9375 189.375 C-256.74960937 189.8390625 -257.56171875 190.303125 -258.3984375 190.78125 C-260.5625 191.875 -260.5625 191.875 -262.5625 191.875 C-262.5625 192.535 -262.5625 193.195 -262.5625 193.875 C-263.10777344 194.16632813 -263.65304687 194.45765625 -264.21484375 194.7578125 C-269.23371568 197.48601981 -273.96166818 200.42602109 -278.6171875 203.73828125 C-280.5625 204.875 -280.5625 204.875 -283.5625 204.875 C-283.5625 205.535 -283.5625 206.195 -283.5625 206.875 C-285.20703125 208.1640625 -285.20703125 208.1640625 -287.375 209.5 C-288.08269531 209.94601562 -288.79039062 210.39203125 -289.51953125 210.8515625 C-291.5625 211.875 -291.5625 211.875 -294.5625 211.875 C-294.5625 212.535 -294.5625 213.195 -294.5625 213.875 C-296.2578125 215.06640625 -296.2578125 215.06640625 -298.6875 216.4375 C-303.03411237 218.95816629 -307.28397846 221.58197586 -311.5 224.3125 C-312.70311467 225.08985973 -313.90623961 225.86720358 -315.109375 226.64453125 C-315.69267578 227.02174316 -316.27597656 227.39895508 -316.87695312 227.78759766 C-321.09089329 230.50615059 -325.32944753 233.18635515 -329.5625 235.875 C-331.39594102 237.04149743 -333.22927344 238.20816556 -335.0625 239.375 C-346.0625 246.375 -346.0625 246.375 -348.7890625 248.109375 C-350.70137204 249.32678896 -352.61277663 250.54562518 -354.5234375 251.765625 C-355.48507812 252.37921875 -356.44671875 252.9928125 -357.4375 253.625 C-358.30117188 254.17671875 -359.16484375 254.7284375 -360.0546875 255.296875 C-360.88226563 255.81765625 -361.70984375 256.3384375 -362.5625 256.875 C-363.45195312 257.43703125 -364.34140625 257.9990625 -365.2578125 258.578125 C-367.5625 259.875 -367.5625 259.875 -369.5625 259.875 C-369.5625 260.535 -369.5625 261.195 -369.5625 261.875 C-370.10777344 262.16632813 -370.65304687 262.45765625 -371.21484375 262.7578125 C-376.02904639 265.37476368 -380.61824477 268.1820528 -385.15625 271.25 C-387.90308807 273.10500753 -390.66176175 274.93846557 -393.4375 276.75 C-394.34242188 277.34554688 -395.24734375 277.94109375 -396.1796875 278.5546875 C-398.5625 279.875 -398.5625 279.875 -401.5625 279.875 C-401.5625 280.535 -401.5625 281.195 -401.5625 281.875 C-411.7828002 288.46566088 -411.7828002 288.46566088 -416.9375 288.0625 C-420.52913914 287.26053241 -423.83165442 286.03554596 -427.24609375 284.671875 C-435.48456217 281.4660362 -443.85590073 278.70425037 -452.25 275.9375 C-453.77288202 275.4332312 -455.29566883 274.92867478 -456.81835938 274.42382812 C-459.85932587 273.41593315 -462.9008 272.4095918 -465.94262695 271.40429688 C-471.43039557 269.58939934 -476.91358642 267.7608235 -482.39628601 265.93067932 C-485.85579053 264.77611848 -489.31622249 263.62453294 -492.77905273 262.47998047 C-502.67634614 259.20837334 -512.54917552 255.86318734 -522.41653442 252.50250244 C-524.00382278 251.96257654 -525.59160671 251.42410519 -527.17990112 250.887146 C-529.4390776 250.12292159 -531.6962827 249.35311733 -533.953125 248.58203125 C-534.96938713 248.24007973 -534.96938713 248.24007973 -536.00617981 247.89122009 C-547.08529936 244.0844895 -555.06043766 238.62809351 -561.5625 228.875 C-563.08359425 222.54528521 -562.82421119 216.95916442 -559.6171875 211.16796875 C-553.17697871 202.19623135 -538.8241216 196.70512162 -528.5625 193.5625 C-523.92922014 192.05435186 -519.43663647 190.25193464 -514.92260742 188.42089844 C-509.27021179 186.13690599 -503.57757091 183.96773859 -497.875 181.8125 C-491.32165322 179.33395704 -484.82959414 176.76538269 -478.3828125 174.01953125 C-475.1223675 172.69638667 -471.82226623 171.53384665 -468.5 170.375 C-463.30639237 168.5546775 -458.37077839 166.45985705 -453.39453125 164.12109375 C-449.07590314 162.22089738 -444.62195367 160.74082958 -440.16796875 159.19140625 C-436.56687345 157.87659681 -433.07377616 156.41241207 -429.5625 154.875 C-424.94489165 152.85479635 -420.32233452 151.03244238 -415.5625 149.375 C-409.63637389 147.30943489 -403.92109209 144.91283521 -398.171875 142.40234375 C-394.45911794 140.83125283 -390.71891026 139.39451261 -386.9375 138 C-379.01683764 135.07862046 -371.1826563 131.95729917 -363.3515625 128.8046875 C-362.56942383 128.48983398 -361.78728516 128.17498047 -360.98144531 127.85058594 C-359.30288109 127.17360344 -357.62520721 126.49441081 -355.94824219 125.81347656 C-355.08618164 125.46510742 -354.22412109 125.11673828 -353.3359375 124.7578125 C-352.56427246 124.44473145 -351.79260742 124.13165039 -350.99755859 123.80908203 C-349.2306548 123.13130241 -347.44433593 122.50346526 -345.6484375 121.90673828 C-342.52426412 120.86221639 -339.47619734 119.69821987 -336.4140625 118.484375 C-335.25132812 118.02498535 -334.08859375 117.5655957 -332.890625 117.09228516 C-331.66859375 116.60808105 -330.4465625 116.12387695 -329.1875 115.625 C-321.33523184 112.52203055 -313.48232969 109.42737256 -305.5625 106.5 C-300.16286585 104.4994986 -294.85789961 102.3404309 -289.55859375 100.08984375 C-286.23856822 98.74365348 -282.88284852 97.55403841 -279.5 96.375 C-274.2840371 94.54282862 -269.28642314 92.473467 -264.28125 90.1328125 C-257.23826319 86.87441918 -250.11072502 83.9818616 -242.71875 81.625 C-239.6537766 80.5589223 -236.73701252 79.21672056 -233.80078125 77.83984375 C-231.10507089 76.67781851 -228.34698687 75.80316229 -225.5625 74.875 C-223.61783096 74.07981145 -221.68029056 73.26698229 -219.75 72.4375 C-215.54894677 70.66509993 -211.36396585 69.10844931 -207.02319336 67.72509766 C-204.31057438 66.78796706 -201.69024187 65.70751946 -199.046875 64.58984375 C-192.82574172 61.97844538 -186.57715607 59.44248056 -180.3125 56.9375 C-179.21333252 56.49784912 -178.11416504 56.05819824 -176.98168945 55.60522461 C-170.02717563 52.83313137 -163.04772729 50.15900864 -156.02734375 47.55859375 C-141.53161681 42.13773499 -127.1704848 36.33656826 -112.8125 30.5625 C-106.40720268 27.98739302 -99.97697914 25.49931353 -93.50585938 23.09472656 C-83.37297192 19.32684661 -73.265647 15.47214613 -63.3125 11.25 C-57.94731766 8.98239531 -52.49222863 7.04639355 -46.9921875 5.1328125 C-43.81315249 3.96692494 -40.77077715 2.64541269 -37.6875 1.25 C-26.53523769 -3.43395017 -10.70804407 -7.69722483 0 0 Z " fill="#020203" transform="translate(740.5625,259.125)"/>
</svg>
